<mxfile host="Electron" modified="2024-03-26T11:08:03.791Z" agent="Mozilla/5.0 (Windows NT 10.0; Win64; x64) AppleWebKit/537.36 (KHTML, like Gecko) draw.io/22.1.2 Chrome/114.0.5735.289 Electron/25.9.4 Safari/537.36" etag="WBrz8JW8Y6lxLYgDFetW" version="22.1.2" type="device" pages="5">
  <diagram id="wVMcOeF1L_z9eImX9hrM" name="Login">
    <mxGraphModel dx="864" dy="556" grid="1" gridSize="10" guides="1" tooltips="1" connect="1" arrows="1" fold="1" page="1" pageScale="1" pageWidth="850" pageHeight="1100" math="0" shadow="0">
      <root>
        <mxCell id="0" />
        <mxCell id="1" parent="0" />
        <mxCell id="eqAEEcafxcWHwHYL-vbD-1" value="" style="strokeWidth=1;shadow=0;dashed=0;align=center;html=1;shape=mxgraph.mockup.containers.browserWindow;rSize=0;strokeColor=#666666;strokeColor2=#008cff;strokeColor3=#c4c4c4;mainText=,;recursiveResize=0;" vertex="1" parent="1">
          <mxGeometry x="120" y="40" width="640" height="590" as="geometry" />
        </mxCell>
        <mxCell id="eqAEEcafxcWHwHYL-vbD-2" value="Page 1" style="strokeWidth=1;shadow=0;dashed=0;align=center;html=1;shape=mxgraph.mockup.containers.anchor;fontSize=17;fontColor=#666666;align=left;whiteSpace=wrap;" vertex="1" parent="eqAEEcafxcWHwHYL-vbD-1">
          <mxGeometry x="60" y="12" width="110" height="26" as="geometry" />
        </mxCell>
        <mxCell id="eqAEEcafxcWHwHYL-vbD-3" value="https://www.verse.com" style="strokeWidth=1;shadow=0;dashed=0;align=center;html=1;shape=mxgraph.mockup.containers.anchor;rSize=0;fontSize=17;fontColor=#666666;align=left;" vertex="1" parent="eqAEEcafxcWHwHYL-vbD-1">
          <mxGeometry x="130" y="60" width="250" height="26" as="geometry" />
        </mxCell>
        <mxCell id="eqAEEcafxcWHwHYL-vbD-4" value="LOGO" style="text;html=1;strokeColor=none;fillColor=none;align=center;verticalAlign=middle;whiteSpace=wrap;rounded=0;" vertex="1" parent="eqAEEcafxcWHwHYL-vbD-1">
          <mxGeometry x="290" y="240" width="60" height="30" as="geometry" />
        </mxCell>
        <mxCell id="eqAEEcafxcWHwHYL-vbD-7" value="" style="rounded=1;whiteSpace=wrap;html=1;" vertex="1" parent="eqAEEcafxcWHwHYL-vbD-1">
          <mxGeometry x="217.5" y="280" width="205" height="180" as="geometry" />
        </mxCell>
        <mxCell id="eqAEEcafxcWHwHYL-vbD-8" value="Login" style="text;html=1;strokeColor=none;fillColor=none;align=center;verticalAlign=middle;whiteSpace=wrap;rounded=0;" vertex="1" parent="eqAEEcafxcWHwHYL-vbD-1">
          <mxGeometry x="290" y="285" width="60" height="30" as="geometry" />
        </mxCell>
        <mxCell id="eqAEEcafxcWHwHYL-vbD-11" value="Email" style="text;html=1;strokeColor=none;fillColor=none;align=center;verticalAlign=middle;whiteSpace=wrap;rounded=0;" vertex="1" parent="eqAEEcafxcWHwHYL-vbD-1">
          <mxGeometry x="225" y="315" width="60" height="30" as="geometry" />
        </mxCell>
        <mxCell id="eqAEEcafxcWHwHYL-vbD-12" value="Password" style="text;html=1;strokeColor=none;fillColor=none;align=center;verticalAlign=middle;whiteSpace=wrap;rounded=0;" vertex="1" parent="eqAEEcafxcWHwHYL-vbD-1">
          <mxGeometry x="217.5" y="345" width="60" height="30" as="geometry" />
        </mxCell>
        <mxCell id="eqAEEcafxcWHwHYL-vbD-13" value="" style="rounded=0;whiteSpace=wrap;html=1;" vertex="1" parent="eqAEEcafxcWHwHYL-vbD-1">
          <mxGeometry x="280" y="315" width="120" height="20" as="geometry" />
        </mxCell>
        <mxCell id="eqAEEcafxcWHwHYL-vbD-14" value="" style="rounded=0;whiteSpace=wrap;html=1;" vertex="1" parent="eqAEEcafxcWHwHYL-vbD-1">
          <mxGeometry x="280" y="350" width="120" height="20" as="geometry" />
        </mxCell>
        <mxCell id="eqAEEcafxcWHwHYL-vbD-15" value="Login" style="strokeWidth=1;shadow=0;dashed=0;align=center;html=1;shape=mxgraph.mockup.buttons.button;strokeColor=#666666;fontColor=#ffffff;mainText=;buttonStyle=round;fontSize=17;fontStyle=1;fillColor=#008cff;whiteSpace=wrap;" vertex="1" parent="eqAEEcafxcWHwHYL-vbD-1">
          <mxGeometry x="275" y="380" width="90" height="20" as="geometry" />
        </mxCell>
        <mxCell id="eqAEEcafxcWHwHYL-vbD-16" value="&lt;u&gt;Register Now&lt;/u&gt;" style="text;html=1;strokeColor=none;fillColor=none;align=center;verticalAlign=middle;whiteSpace=wrap;rounded=0;" vertex="1" parent="eqAEEcafxcWHwHYL-vbD-1">
          <mxGeometry x="275" y="410" width="90" height="30" as="geometry" />
        </mxCell>
      </root>
    </mxGraphModel>
  </diagram>
  <diagram id="vvt3obakc4NniVIcCXFs" name="Register">
    <mxGraphModel dx="880" dy="572" grid="1" gridSize="10" guides="1" tooltips="1" connect="1" arrows="1" fold="1" page="1" pageScale="1" pageWidth="850" pageHeight="1100" math="0" shadow="0">
      <root>
        <mxCell id="0" />
        <mxCell id="1" parent="0" />
        <mxCell id="ZHp5BdnKwt3dFZGnxDeX-1" value="" style="strokeWidth=1;shadow=0;dashed=0;align=center;html=1;shape=mxgraph.mockup.containers.browserWindow;rSize=0;strokeColor=#666666;strokeColor2=#008cff;strokeColor3=#c4c4c4;mainText=,;recursiveResize=0;" vertex="1" parent="1">
          <mxGeometry x="80" y="190" width="570" height="480" as="geometry" />
        </mxCell>
        <mxCell id="ZHp5BdnKwt3dFZGnxDeX-2" value="Page 1" style="strokeWidth=1;shadow=0;dashed=0;align=center;html=1;shape=mxgraph.mockup.containers.anchor;fontSize=17;fontColor=#666666;align=left;whiteSpace=wrap;" vertex="1" parent="ZHp5BdnKwt3dFZGnxDeX-1">
          <mxGeometry x="60" y="12" width="110" height="26" as="geometry" />
        </mxCell>
        <mxCell id="ZHp5BdnKwt3dFZGnxDeX-3" value="https://www.verse.com" style="strokeWidth=1;shadow=0;dashed=0;align=center;html=1;shape=mxgraph.mockup.containers.anchor;rSize=0;fontSize=17;fontColor=#666666;align=left;" vertex="1" parent="ZHp5BdnKwt3dFZGnxDeX-1">
          <mxGeometry x="130" y="60" width="250" height="26" as="geometry" />
        </mxCell>
        <mxCell id="ZHp5BdnKwt3dFZGnxDeX-4" value="LOGO" style="text;html=1;strokeColor=none;fillColor=none;align=center;verticalAlign=middle;whiteSpace=wrap;rounded=0;" vertex="1" parent="ZHp5BdnKwt3dFZGnxDeX-1">
          <mxGeometry x="255" y="140" width="60" height="30" as="geometry" />
        </mxCell>
        <mxCell id="ZHp5BdnKwt3dFZGnxDeX-5" value="" style="rounded=1;whiteSpace=wrap;html=1;" vertex="1" parent="ZHp5BdnKwt3dFZGnxDeX-1">
          <mxGeometry x="182.5" y="180" width="205" height="280" as="geometry" />
        </mxCell>
        <mxCell id="ZHp5BdnKwt3dFZGnxDeX-6" value="Register" style="text;html=1;strokeColor=none;fillColor=none;align=center;verticalAlign=middle;whiteSpace=wrap;rounded=0;" vertex="1" parent="ZHp5BdnKwt3dFZGnxDeX-1">
          <mxGeometry x="255" y="185" width="60" height="30" as="geometry" />
        </mxCell>
        <mxCell id="ZHp5BdnKwt3dFZGnxDeX-7" value="Email" style="text;html=1;strokeColor=none;fillColor=none;align=center;verticalAlign=middle;whiteSpace=wrap;rounded=0;" vertex="1" parent="ZHp5BdnKwt3dFZGnxDeX-1">
          <mxGeometry x="190" y="215" width="60" height="30" as="geometry" />
        </mxCell>
        <mxCell id="ZHp5BdnKwt3dFZGnxDeX-8" value="Profile Picture" style="text;html=1;strokeColor=none;fillColor=none;align=center;verticalAlign=middle;whiteSpace=wrap;rounded=0;" vertex="1" parent="ZHp5BdnKwt3dFZGnxDeX-1">
          <mxGeometry x="182.5" y="295" width="90" height="30" as="geometry" />
        </mxCell>
        <mxCell id="ZHp5BdnKwt3dFZGnxDeX-9" value="" style="rounded=0;whiteSpace=wrap;html=1;" vertex="1" parent="ZHp5BdnKwt3dFZGnxDeX-1">
          <mxGeometry x="242.5" y="215" width="120" height="20" as="geometry" />
        </mxCell>
        <mxCell id="ZHp5BdnKwt3dFZGnxDeX-10" value="Gallary" style="rounded=0;whiteSpace=wrap;html=1;" vertex="1" parent="ZHp5BdnKwt3dFZGnxDeX-1">
          <mxGeometry x="280" y="300" width="67.5" height="20" as="geometry" />
        </mxCell>
        <mxCell id="ZHp5BdnKwt3dFZGnxDeX-11" value="Register" style="strokeWidth=1;shadow=0;dashed=0;align=center;html=1;shape=mxgraph.mockup.buttons.button;strokeColor=#666666;fontColor=#ffffff;mainText=;buttonStyle=round;fontSize=17;fontStyle=1;fillColor=#008cff;whiteSpace=wrap;" vertex="1" parent="ZHp5BdnKwt3dFZGnxDeX-1">
          <mxGeometry x="240" y="390" width="90" height="20" as="geometry" />
        </mxCell>
        <mxCell id="ZHp5BdnKwt3dFZGnxDeX-12" value="&lt;u&gt;Login Now&lt;/u&gt;" style="text;html=1;strokeColor=none;fillColor=none;align=center;verticalAlign=middle;whiteSpace=wrap;rounded=0;" vertex="1" parent="ZHp5BdnKwt3dFZGnxDeX-1">
          <mxGeometry x="240" y="410" width="90" height="30" as="geometry" />
        </mxCell>
        <mxCell id="KxwxN_BVI6auD30vpn55-3" value="Password" style="text;html=1;strokeColor=none;fillColor=none;align=center;verticalAlign=middle;whiteSpace=wrap;rounded=0;" vertex="1" parent="ZHp5BdnKwt3dFZGnxDeX-1">
          <mxGeometry x="182.5" y="265" width="60" height="30" as="geometry" />
        </mxCell>
        <mxCell id="KxwxN_BVI6auD30vpn55-4" value="" style="rounded=0;whiteSpace=wrap;html=1;" vertex="1" parent="ZHp5BdnKwt3dFZGnxDeX-1">
          <mxGeometry x="242.5" y="270" width="120" height="20" as="geometry" />
        </mxCell>
        <mxCell id="KxwxN_BVI6auD30vpn55-5" value="Username" style="text;html=1;strokeColor=none;fillColor=none;align=center;verticalAlign=middle;whiteSpace=wrap;rounded=0;" vertex="1" parent="ZHp5BdnKwt3dFZGnxDeX-1">
          <mxGeometry x="182.5" y="235" width="60" height="30" as="geometry" />
        </mxCell>
        <mxCell id="KxwxN_BVI6auD30vpn55-6" value="" style="rounded=0;whiteSpace=wrap;html=1;" vertex="1" parent="ZHp5BdnKwt3dFZGnxDeX-1">
          <mxGeometry x="242.5" y="240" width="120" height="20" as="geometry" />
        </mxCell>
        <mxCell id="KxwxN_BVI6auD30vpn55-9" value="Bio" style="text;html=1;strokeColor=none;fillColor=none;align=center;verticalAlign=middle;whiteSpace=wrap;rounded=0;" vertex="1" parent="ZHp5BdnKwt3dFZGnxDeX-1">
          <mxGeometry x="182.5" y="325" width="60" height="30" as="geometry" />
        </mxCell>
        <mxCell id="KxwxN_BVI6auD30vpn55-10" value="" style="rounded=0;whiteSpace=wrap;html=1;" vertex="1" parent="ZHp5BdnKwt3dFZGnxDeX-1">
          <mxGeometry x="242.5" y="330" width="120" height="50" as="geometry" />
        </mxCell>
      </root>
    </mxGraphModel>
  </diagram>
  <diagram id="enV4qaHJOZXBbeviu2Wk" name="Display Post">
    <mxGraphModel dx="880" dy="572" grid="1" gridSize="10" guides="1" tooltips="1" connect="1" arrows="1" fold="1" page="1" pageScale="1" pageWidth="850" pageHeight="1100" math="0" shadow="0">
      <root>
        <mxCell id="0" />
        <mxCell id="1" parent="0" />
        <mxCell id="ato_7eZIrIzZl9hDjyrA-1" value="" style="strokeWidth=1;shadow=0;dashed=0;align=center;html=1;shape=mxgraph.mockup.containers.browserWindow;rSize=0;strokeColor=#666666;strokeColor2=#008cff;strokeColor3=#c4c4c4;mainText=,;recursiveResize=0;" vertex="1" parent="1">
          <mxGeometry x="80" y="20" width="570" height="520" as="geometry" />
        </mxCell>
        <mxCell id="ato_7eZIrIzZl9hDjyrA-2" value="Page 1" style="strokeWidth=1;shadow=0;dashed=0;align=center;html=1;shape=mxgraph.mockup.containers.anchor;fontSize=17;fontColor=#666666;align=left;whiteSpace=wrap;" vertex="1" parent="ato_7eZIrIzZl9hDjyrA-1">
          <mxGeometry x="60" y="12" width="110" height="26" as="geometry" />
        </mxCell>
        <mxCell id="ato_7eZIrIzZl9hDjyrA-3" value="https://www.verse.com" style="strokeWidth=1;shadow=0;dashed=0;align=center;html=1;shape=mxgraph.mockup.containers.anchor;rSize=0;fontSize=17;fontColor=#666666;align=left;" vertex="1" parent="ato_7eZIrIzZl9hDjyrA-1">
          <mxGeometry x="130" y="60" width="250" height="26" as="geometry" />
        </mxCell>
        <mxCell id="ato_7eZIrIzZl9hDjyrA-4" value="Search" style="strokeWidth=1;shadow=0;dashed=0;align=center;html=1;shape=mxgraph.mockup.forms.searchBox;strokeColor=#999999;mainText=;strokeColor2=#008cff;fontColor=#666666;fontSize=17;align=left;spacingLeft=3;whiteSpace=wrap;" vertex="1" parent="ato_7eZIrIzZl9hDjyrA-1">
          <mxGeometry x="300" y="130" width="150" height="30" as="geometry" />
        </mxCell>
        <mxCell id="ato_7eZIrIzZl9hDjyrA-5" value="Logo" style="text;html=1;strokeColor=none;fillColor=none;align=center;verticalAlign=middle;whiteSpace=wrap;rounded=0;" vertex="1" parent="ato_7eZIrIzZl9hDjyrA-1">
          <mxGeometry x="10" y="130" width="60" height="30" as="geometry" />
        </mxCell>
        <mxCell id="ato_7eZIrIzZl9hDjyrA-6" value="" style="verticalLabelPosition=bottom;shadow=0;dashed=0;align=center;html=1;verticalAlign=top;strokeWidth=1;shape=mxgraph.mockup.containers.userFemale;strokeColor=#666666;strokeColor2=#008cff;" vertex="1" parent="ato_7eZIrIzZl9hDjyrA-1">
          <mxGeometry x="470" y="120" width="50" height="50" as="geometry" />
        </mxCell>
        <mxCell id="ato_7eZIrIzZl9hDjyrA-7" value="" style="verticalLabelPosition=bottom;shadow=0;dashed=0;align=center;html=1;verticalAlign=top;strokeWidth=1;shape=mxgraph.mockup.markup.line;strokeColor=#999999;" vertex="1" parent="ato_7eZIrIzZl9hDjyrA-1">
          <mxGeometry x="20" y="180" width="530" height="20" as="geometry" />
        </mxCell>
        <mxCell id="ato_7eZIrIzZl9hDjyrA-8" value="" style="rounded=0;whiteSpace=wrap;html=1;" vertex="1" parent="ato_7eZIrIzZl9hDjyrA-1">
          <mxGeometry x="20" y="210" width="530" height="80" as="geometry" />
        </mxCell>
        <mxCell id="ato_7eZIrIzZl9hDjyrA-9" value="Username" style="text;html=1;strokeColor=none;fillColor=none;align=center;verticalAlign=middle;whiteSpace=wrap;rounded=0;" vertex="1" parent="ato_7eZIrIzZl9hDjyrA-1">
          <mxGeometry x="20" y="210" width="60" height="30" as="geometry" />
        </mxCell>
        <mxCell id="ato_7eZIrIzZl9hDjyrA-10" value="&lt;h1&gt;Title&lt;/h1&gt;&lt;p&gt;Display Text&lt;/p&gt;" style="text;html=1;strokeColor=none;fillColor=none;spacing=5;spacingTop=-20;whiteSpace=wrap;overflow=hidden;rounded=0;" vertex="1" parent="ato_7eZIrIzZl9hDjyrA-1">
          <mxGeometry x="80" y="217.5" width="180" height="65" as="geometry" />
        </mxCell>
        <mxCell id="ato_7eZIrIzZl9hDjyrA-11" value="" style="sketch=0;html=1;aspect=fixed;strokeColor=none;shadow=0;fillColor=#3B8DF1;verticalAlign=top;labelPosition=center;verticalLabelPosition=bottom;shape=mxgraph.gcp2.thumbs_up" vertex="1" parent="ato_7eZIrIzZl9hDjyrA-1">
          <mxGeometry x="30" y="240" width="40" height="40" as="geometry" />
        </mxCell>
        <mxCell id="ato_7eZIrIzZl9hDjyrA-12" value="" style="sketch=0;outlineConnect=0;fontColor=#232F3E;gradientColor=none;fillColor=#ED7100;strokeColor=none;dashed=0;verticalLabelPosition=bottom;verticalAlign=top;align=center;html=1;fontSize=12;fontStyle=0;aspect=fixed;pointerEvents=1;shape=mxgraph.aws4.container_registry_image;" vertex="1" parent="ato_7eZIrIzZl9hDjyrA-1">
          <mxGeometry x="460" y="214.5" width="68" height="68" as="geometry" />
        </mxCell>
        <mxCell id="ato_7eZIrIzZl9hDjyrA-13" value="" style="rounded=0;whiteSpace=wrap;html=1;" vertex="1" parent="ato_7eZIrIzZl9hDjyrA-1">
          <mxGeometry x="20" y="300" width="530" height="80" as="geometry" />
        </mxCell>
        <mxCell id="ato_7eZIrIzZl9hDjyrA-14" value="" style="sketch=0;outlineConnect=0;fontColor=#232F3E;gradientColor=none;fillColor=#ED7100;strokeColor=none;dashed=0;verticalLabelPosition=bottom;verticalAlign=top;align=center;html=1;fontSize=12;fontStyle=0;aspect=fixed;pointerEvents=1;shape=mxgraph.aws4.container_registry_image;" vertex="1" parent="ato_7eZIrIzZl9hDjyrA-1">
          <mxGeometry x="460" y="304.5" width="68" height="68" as="geometry" />
        </mxCell>
        <mxCell id="ato_7eZIrIzZl9hDjyrA-15" value="" style="sketch=0;html=1;aspect=fixed;strokeColor=none;shadow=0;fillColor=#3B8DF1;verticalAlign=top;labelPosition=center;verticalLabelPosition=bottom;shape=mxgraph.gcp2.thumbs_up" vertex="1" parent="ato_7eZIrIzZl9hDjyrA-1">
          <mxGeometry x="30" y="330" width="40" height="40" as="geometry" />
        </mxCell>
        <mxCell id="ato_7eZIrIzZl9hDjyrA-16" value="Username" style="text;html=1;strokeColor=none;fillColor=none;align=center;verticalAlign=middle;whiteSpace=wrap;rounded=0;" vertex="1" parent="ato_7eZIrIzZl9hDjyrA-1">
          <mxGeometry x="20" y="300" width="60" height="30" as="geometry" />
        </mxCell>
        <mxCell id="ato_7eZIrIzZl9hDjyrA-17" value="" style="rounded=0;whiteSpace=wrap;html=1;" vertex="1" parent="ato_7eZIrIzZl9hDjyrA-1">
          <mxGeometry x="20" y="400" width="530" height="80" as="geometry" />
        </mxCell>
        <mxCell id="ato_7eZIrIzZl9hDjyrA-18" value="" style="sketch=0;outlineConnect=0;fontColor=#232F3E;gradientColor=none;fillColor=#ED7100;strokeColor=none;dashed=0;verticalLabelPosition=bottom;verticalAlign=top;align=center;html=1;fontSize=12;fontStyle=0;aspect=fixed;pointerEvents=1;shape=mxgraph.aws4.container_registry_image;" vertex="1" parent="ato_7eZIrIzZl9hDjyrA-1">
          <mxGeometry x="460" y="404.5" width="68" height="68" as="geometry" />
        </mxCell>
        <mxCell id="ato_7eZIrIzZl9hDjyrA-19" value="" style="sketch=0;html=1;aspect=fixed;strokeColor=none;shadow=0;fillColor=#3B8DF1;verticalAlign=top;labelPosition=center;verticalLabelPosition=bottom;shape=mxgraph.gcp2.thumbs_up" vertex="1" parent="ato_7eZIrIzZl9hDjyrA-1">
          <mxGeometry x="30" y="430" width="40" height="40" as="geometry" />
        </mxCell>
        <mxCell id="ato_7eZIrIzZl9hDjyrA-20" value="Username" style="text;html=1;strokeColor=none;fillColor=none;align=center;verticalAlign=middle;whiteSpace=wrap;rounded=0;" vertex="1" parent="ato_7eZIrIzZl9hDjyrA-1">
          <mxGeometry x="20" y="400" width="60" height="30" as="geometry" />
        </mxCell>
        <mxCell id="ato_7eZIrIzZl9hDjyrA-21" value="&lt;h1&gt;Title&lt;/h1&gt;&lt;p&gt;Display Text&lt;/p&gt;" style="text;html=1;strokeColor=none;fillColor=none;spacing=5;spacingTop=-20;whiteSpace=wrap;overflow=hidden;rounded=0;" vertex="1" parent="ato_7eZIrIzZl9hDjyrA-1">
          <mxGeometry x="90" y="307.5" width="180" height="65" as="geometry" />
        </mxCell>
        <mxCell id="ato_7eZIrIzZl9hDjyrA-22" value="&lt;h1&gt;Title&lt;/h1&gt;&lt;p&gt;Display Text&lt;/p&gt;" style="text;html=1;strokeColor=none;fillColor=none;spacing=5;spacingTop=-20;whiteSpace=wrap;overflow=hidden;rounded=0;" vertex="1" parent="ato_7eZIrIzZl9hDjyrA-1">
          <mxGeometry x="90" y="407.5" width="180" height="65" as="geometry" />
        </mxCell>
        <mxCell id="ckVCOwwWffhUVUlTNYyj-2" value="&lt;&lt; Prev 1 2 3 4 5 6 7 8 9 10 Next &gt;&gt;" style="strokeWidth=1;shadow=0;dashed=0;align=center;html=1;shape=mxgraph.mockup.navigation.pagination;linkText=;fontSize=17;fontColor=#0000ff;fontStyle=4;" vertex="1" parent="ato_7eZIrIzZl9hDjyrA-1">
          <mxGeometry x="80" y="490" width="350" height="30" as="geometry" />
        </mxCell>
      </root>
    </mxGraphModel>
  </diagram>
  <diagram id="mFBn6hB5hqVzoB6mqDTa" name="Actual Post">
    <mxGraphModel dx="880" dy="1672" grid="1" gridSize="10" guides="1" tooltips="1" connect="1" arrows="1" fold="1" page="1" pageScale="1" pageWidth="850" pageHeight="1100" math="0" shadow="0">
      <root>
        <mxCell id="0" />
        <mxCell id="1" parent="0" />
        <mxCell id="sKIpo9p-cp8vB9TFnqm7-2" value="" style="strokeWidth=1;shadow=0;dashed=0;align=center;html=1;shape=mxgraph.mockup.containers.browserWindow;rSize=0;strokeColor=#666666;strokeColor2=#008cff;strokeColor3=#c4c4c4;mainText=,;recursiveResize=0;" vertex="1" parent="1">
          <mxGeometry x="140" y="-50" width="570" height="1020" as="geometry" />
        </mxCell>
        <mxCell id="sKIpo9p-cp8vB9TFnqm7-3" value="Page 1" style="strokeWidth=1;shadow=0;dashed=0;align=center;html=1;shape=mxgraph.mockup.containers.anchor;fontSize=17;fontColor=#666666;align=left;whiteSpace=wrap;" vertex="1" parent="sKIpo9p-cp8vB9TFnqm7-2">
          <mxGeometry x="60" y="12" width="110" height="26" as="geometry" />
        </mxCell>
        <mxCell id="sKIpo9p-cp8vB9TFnqm7-4" value="https://www.verse.com" style="strokeWidth=1;shadow=0;dashed=0;align=center;html=1;shape=mxgraph.mockup.containers.anchor;rSize=0;fontSize=17;fontColor=#666666;align=left;" vertex="1" parent="sKIpo9p-cp8vB9TFnqm7-2">
          <mxGeometry x="130" y="60" width="250" height="26" as="geometry" />
        </mxCell>
        <mxCell id="sKIpo9p-cp8vB9TFnqm7-5" value="Search" style="strokeWidth=1;shadow=0;dashed=0;align=center;html=1;shape=mxgraph.mockup.forms.searchBox;strokeColor=#999999;mainText=;strokeColor2=#008cff;fontColor=#666666;fontSize=17;align=left;spacingLeft=3;whiteSpace=wrap;" vertex="1" parent="sKIpo9p-cp8vB9TFnqm7-2">
          <mxGeometry x="300" y="130" width="150" height="30" as="geometry" />
        </mxCell>
        <mxCell id="sKIpo9p-cp8vB9TFnqm7-6" value="Logo" style="text;html=1;strokeColor=none;fillColor=none;align=center;verticalAlign=middle;whiteSpace=wrap;rounded=0;" vertex="1" parent="sKIpo9p-cp8vB9TFnqm7-2">
          <mxGeometry x="10" y="130" width="60" height="30" as="geometry" />
        </mxCell>
        <mxCell id="sKIpo9p-cp8vB9TFnqm7-8" value="" style="verticalLabelPosition=bottom;shadow=0;dashed=0;align=center;html=1;verticalAlign=top;strokeWidth=1;shape=mxgraph.mockup.containers.userFemale;strokeColor=#666666;strokeColor2=#008cff;" vertex="1" parent="sKIpo9p-cp8vB9TFnqm7-2">
          <mxGeometry x="470" y="120" width="50" height="50" as="geometry" />
        </mxCell>
        <mxCell id="sKIpo9p-cp8vB9TFnqm7-14" value="" style="verticalLabelPosition=bottom;shadow=0;dashed=0;align=center;html=1;verticalAlign=top;strokeWidth=1;shape=mxgraph.mockup.markup.line;strokeColor=#999999;" vertex="1" parent="sKIpo9p-cp8vB9TFnqm7-2">
          <mxGeometry x="20" y="180" width="530" height="20" as="geometry" />
        </mxCell>
        <mxCell id="-CLqap2YtTA0H0oxeW2u-1" value="Title" style="text;strokeColor=none;fillColor=none;html=1;fontSize=24;fontStyle=1;verticalAlign=middle;align=center;" vertex="1" parent="sKIpo9p-cp8vB9TFnqm7-2">
          <mxGeometry x="205" y="200" width="100" height="40" as="geometry" />
        </mxCell>
        <mxCell id="-CLqap2YtTA0H0oxeW2u-2" value="" style="sketch=0;outlineConnect=0;fontColor=#232F3E;gradientColor=none;fillColor=#ED7100;strokeColor=none;dashed=0;verticalLabelPosition=bottom;verticalAlign=top;align=center;html=1;fontSize=12;fontStyle=0;aspect=fixed;pointerEvents=1;shape=mxgraph.aws4.container_registry_image;" vertex="1" parent="sKIpo9p-cp8vB9TFnqm7-2">
          <mxGeometry x="190" y="240" width="130" height="130" as="geometry" />
        </mxCell>
        <mxCell id="-CLqap2YtTA0H0oxeW2u-3" value="Display Text" style="text;html=1;strokeColor=none;fillColor=none;align=center;verticalAlign=middle;whiteSpace=wrap;rounded=0;" vertex="1" parent="sKIpo9p-cp8vB9TFnqm7-2">
          <mxGeometry x="212.5" y="380" width="85" height="30" as="geometry" />
        </mxCell>
        <mxCell id="-CLqap2YtTA0H0oxeW2u-4" value="Lorem ipsum dolor sit amet, consectetur adipisicing elit, sed do eiusmod tempor incididunt ut labore et dolore magna aliqua. Ut enim ad minim veniam, quis nostrud exercitation ullamco laboris nisi ut aliquip ex ea commodo consequat. Duis aute irure dolor in reprehenderit in voluptate velit esse cillum dolore eu fugiat nulla pariatur. Excepteur sint occaecat cupidatat non proident, sunt in culpa qui officia deserunt mollit anim id est laborum.&#xa;Sed ut perspiciatis unde omnis iste natus error sit voluptatem accusantium doloremque laudantium, totam rem aperiam, eaque ipsa quae ab illo inventore veritatis et quasi architecto beatae vitae dicta sunt explicabo. Nemo enim ipsam voluptatem quia voluptas sit aspernatur aut odit aut fugit, sed quia consequuntur magni dolores eos qui ratione voluptatem sequi nesciunt. Neque porro quisquam est, qui dolorem ipsum quia dolor sit amet, consectetur, adipisci velit, sed quia non numquam eius modi tempora incidunt ut labore et dolore magnam aliquam quaerat voluptatem. Ut enim ad minima veniam, quis nostrum exercitationem ullam corporis suscipit laboriosam, nisi ut aliquid ex ea commodi consequatur? Quis autem vel eum iure reprehenderit qui in ea voluptate velit esse quam nihil molestiae consequatur, vel illum qui dolorem eum fugiat quo voluptas nulla pariatur?" style="text;spacingTop=-5;whiteSpace=wrap;html=1;align=left;fontSize=12;fontFamily=Helvetica;fillColor=none;strokeColor=none;" vertex="1" parent="sKIpo9p-cp8vB9TFnqm7-2">
          <mxGeometry x="20" y="420" width="530" height="240" as="geometry" />
        </mxCell>
        <mxCell id="-CLqap2YtTA0H0oxeW2u-5" value="" style="verticalLabelPosition=bottom;shadow=0;dashed=0;align=center;html=1;verticalAlign=top;strokeWidth=1;shape=mxgraph.mockup.markup.line;strokeColor=#999999;" vertex="1" parent="sKIpo9p-cp8vB9TFnqm7-2">
          <mxGeometry x="20" y="650" width="530" height="20" as="geometry" />
        </mxCell>
        <mxCell id="-CLqap2YtTA0H0oxeW2u-11" value="" style="sketch=0;html=1;aspect=fixed;strokeColor=none;shadow=0;fillColor=#3B8DF1;verticalAlign=top;labelPosition=center;verticalLabelPosition=bottom;shape=mxgraph.gcp2.thumbs_up" vertex="1" parent="sKIpo9p-cp8vB9TFnqm7-2">
          <mxGeometry x="20" y="670" width="50" height="50" as="geometry" />
        </mxCell>
        <mxCell id="-CLqap2YtTA0H0oxeW2u-12" value="&lt;br&gt;&lt;br&gt;&lt;span style=&quot;white-space: pre;&quot;&gt;&#x9;&lt;/span&gt;&lt;span style=&quot;white-space: pre;&quot;&gt;&#x9;&lt;/span&gt;Add a Comment" style="shape=mxgraph.mockup.containers.marginRect;rectMarginTop=10;strokeColor=#666666;strokeWidth=1;dashed=0;rounded=1;arcSize=5;recursiveResize=0;html=1;whiteSpace=wrap;align=left;" vertex="1" parent="sKIpo9p-cp8vB9TFnqm7-2">
          <mxGeometry x="80" y="660" width="460" height="70" as="geometry" />
        </mxCell>
        <mxCell id="-CLqap2YtTA0H0oxeW2u-13" value="Comment" style="shape=rect;strokeColor=none;fillColor=#008cff;strokeWidth=1;dashed=0;rounded=1;arcSize=20;fontColor=#ffffff;fontSize=17;spacing=2;spacingTop=-2;align=left;autosize=1;spacingLeft=4;resizeWidth=0;resizeHeight=0;perimeter=none;html=1;whiteSpace=wrap;" vertex="1" parent="-CLqap2YtTA0H0oxeW2u-12">
          <mxGeometry x="5" width="100" height="30" as="geometry" />
        </mxCell>
        <mxCell id="-CLqap2YtTA0H0oxeW2u-14" value="69" style="text;html=1;strokeColor=none;fillColor=none;align=center;verticalAlign=middle;whiteSpace=wrap;rounded=0;" vertex="1" parent="sKIpo9p-cp8vB9TFnqm7-2">
          <mxGeometry x="40" y="710" width="60" height="30" as="geometry" />
        </mxCell>
        <mxCell id="jpjMxrq8Hw2Cy1XKjLij-1" value="" style="rounded=0;whiteSpace=wrap;html=1;" vertex="1" parent="sKIpo9p-cp8vB9TFnqm7-2">
          <mxGeometry x="20" y="750" width="530" height="80" as="geometry" />
        </mxCell>
        <mxCell id="jpjMxrq8Hw2Cy1XKjLij-2" value="Username" style="text;html=1;strokeColor=none;fillColor=none;align=center;verticalAlign=middle;whiteSpace=wrap;rounded=0;" vertex="1" parent="sKIpo9p-cp8vB9TFnqm7-2">
          <mxGeometry x="20" y="750" width="60" height="30" as="geometry" />
        </mxCell>
        <mxCell id="jpjMxrq8Hw2Cy1XKjLij-3" value="&lt;h1&gt;&lt;br&gt;&lt;/h1&gt;&lt;p&gt;Comment&lt;/p&gt;" style="text;html=1;strokeColor=none;fillColor=none;spacing=5;spacingTop=-20;whiteSpace=wrap;overflow=hidden;rounded=0;" vertex="1" parent="sKIpo9p-cp8vB9TFnqm7-2">
          <mxGeometry x="80" y="757.5" width="180" height="65" as="geometry" />
        </mxCell>
        <mxCell id="jpjMxrq8Hw2Cy1XKjLij-5" value="" style="sketch=0;outlineConnect=0;fontColor=#232F3E;gradientColor=none;fillColor=#ED7100;strokeColor=none;dashed=0;verticalLabelPosition=bottom;verticalAlign=top;align=center;html=1;fontSize=12;fontStyle=0;aspect=fixed;pointerEvents=1;shape=mxgraph.aws4.container_registry_image;" vertex="1" parent="sKIpo9p-cp8vB9TFnqm7-2">
          <mxGeometry x="460" y="754.5" width="68" height="68" as="geometry" />
        </mxCell>
        <mxCell id="jpjMxrq8Hw2Cy1XKjLij-11" value="" style="rounded=0;whiteSpace=wrap;html=1;" vertex="1" parent="sKIpo9p-cp8vB9TFnqm7-2">
          <mxGeometry x="20" y="840" width="530" height="80" as="geometry" />
        </mxCell>
        <mxCell id="jpjMxrq8Hw2Cy1XKjLij-12" value="Username" style="text;html=1;strokeColor=none;fillColor=none;align=center;verticalAlign=middle;whiteSpace=wrap;rounded=0;" vertex="1" parent="sKIpo9p-cp8vB9TFnqm7-2">
          <mxGeometry x="20" y="840" width="60" height="30" as="geometry" />
        </mxCell>
        <mxCell id="jpjMxrq8Hw2Cy1XKjLij-14" value="&lt;h1&gt;&lt;br&gt;&lt;/h1&gt;&lt;p&gt;Comment&lt;/p&gt;" style="text;html=1;strokeColor=none;fillColor=none;spacing=5;spacingTop=-20;whiteSpace=wrap;overflow=hidden;rounded=0;" vertex="1" parent="sKIpo9p-cp8vB9TFnqm7-2">
          <mxGeometry x="80" y="847.5" width="180" height="65" as="geometry" />
        </mxCell>
        <mxCell id="jpjMxrq8Hw2Cy1XKjLij-15" value="" style="sketch=0;outlineConnect=0;fontColor=#232F3E;gradientColor=none;fillColor=#ED7100;strokeColor=none;dashed=0;verticalLabelPosition=bottom;verticalAlign=top;align=center;html=1;fontSize=12;fontStyle=0;aspect=fixed;pointerEvents=1;shape=mxgraph.aws4.container_registry_image;" vertex="1" parent="sKIpo9p-cp8vB9TFnqm7-2">
          <mxGeometry x="460" y="844.5" width="68" height="68" as="geometry" />
        </mxCell>
        <mxCell id="jpjMxrq8Hw2Cy1XKjLij-16" value="" style="rounded=0;whiteSpace=wrap;html=1;" vertex="1" parent="sKIpo9p-cp8vB9TFnqm7-2">
          <mxGeometry x="20" y="930" width="530" height="80" as="geometry" />
        </mxCell>
        <mxCell id="jpjMxrq8Hw2Cy1XKjLij-17" value="Username" style="text;html=1;strokeColor=none;fillColor=none;align=center;verticalAlign=middle;whiteSpace=wrap;rounded=0;" vertex="1" parent="sKIpo9p-cp8vB9TFnqm7-2">
          <mxGeometry x="20" y="930" width="60" height="30" as="geometry" />
        </mxCell>
        <mxCell id="jpjMxrq8Hw2Cy1XKjLij-19" value="&lt;h1&gt;&lt;br&gt;&lt;/h1&gt;&lt;p&gt;Comment&lt;/p&gt;" style="text;html=1;strokeColor=none;fillColor=none;spacing=5;spacingTop=-20;whiteSpace=wrap;overflow=hidden;rounded=0;" vertex="1" parent="sKIpo9p-cp8vB9TFnqm7-2">
          <mxGeometry x="80" y="937.5" width="180" height="65" as="geometry" />
        </mxCell>
        <mxCell id="jpjMxrq8Hw2Cy1XKjLij-20" value="" style="sketch=0;outlineConnect=0;fontColor=#232F3E;gradientColor=none;fillColor=#ED7100;strokeColor=none;dashed=0;verticalLabelPosition=bottom;verticalAlign=top;align=center;html=1;fontSize=12;fontStyle=0;aspect=fixed;pointerEvents=1;shape=mxgraph.aws4.container_registry_image;" vertex="1" parent="sKIpo9p-cp8vB9TFnqm7-2">
          <mxGeometry x="460" y="934.5" width="68" height="68" as="geometry" />
        </mxCell>
      </root>
    </mxGraphModel>
  </diagram>
  <diagram id="-Q4MNPXZyyoDtkwWYh9C" name="Profile">
    <mxGraphModel dx="880" dy="572" grid="1" gridSize="10" guides="1" tooltips="1" connect="1" arrows="1" fold="1" page="1" pageScale="1" pageWidth="850" pageHeight="1100" math="0" shadow="0">
      <root>
        <mxCell id="0" />
        <mxCell id="1" parent="0" />
        <mxCell id="0tqGgI4BvTpkw9eH6gjI-1" value="" style="strokeWidth=1;shadow=0;dashed=0;align=center;html=1;shape=mxgraph.mockup.containers.browserWindow;rSize=0;strokeColor=#666666;strokeColor2=#008cff;strokeColor3=#c4c4c4;mainText=,;recursiveResize=0;" vertex="1" parent="1">
          <mxGeometry x="620" y="260" width="570" height="760" as="geometry" />
        </mxCell>
        <mxCell id="0tqGgI4BvTpkw9eH6gjI-2" value="Page 1" style="strokeWidth=1;shadow=0;dashed=0;align=center;html=1;shape=mxgraph.mockup.containers.anchor;fontSize=17;fontColor=#666666;align=left;whiteSpace=wrap;" vertex="1" parent="0tqGgI4BvTpkw9eH6gjI-1">
          <mxGeometry x="60" y="12" width="110" height="26" as="geometry" />
        </mxCell>
        <mxCell id="0tqGgI4BvTpkw9eH6gjI-3" value="https://www.verse.com" style="strokeWidth=1;shadow=0;dashed=0;align=center;html=1;shape=mxgraph.mockup.containers.anchor;rSize=0;fontSize=17;fontColor=#666666;align=left;" vertex="1" parent="0tqGgI4BvTpkw9eH6gjI-1">
          <mxGeometry x="130" y="60" width="250" height="26" as="geometry" />
        </mxCell>
        <mxCell id="0tqGgI4BvTpkw9eH6gjI-4" value="Search" style="strokeWidth=1;shadow=0;dashed=0;align=center;html=1;shape=mxgraph.mockup.forms.searchBox;strokeColor=#999999;mainText=;strokeColor2=#008cff;fontColor=#666666;fontSize=17;align=left;spacingLeft=3;whiteSpace=wrap;" vertex="1" parent="0tqGgI4BvTpkw9eH6gjI-1">
          <mxGeometry x="300" y="130" width="150" height="30" as="geometry" />
        </mxCell>
        <mxCell id="0tqGgI4BvTpkw9eH6gjI-5" value="Logo" style="text;html=1;strokeColor=none;fillColor=none;align=center;verticalAlign=middle;whiteSpace=wrap;rounded=0;" vertex="1" parent="0tqGgI4BvTpkw9eH6gjI-1">
          <mxGeometry x="10" y="130" width="60" height="30" as="geometry" />
        </mxCell>
        <mxCell id="0tqGgI4BvTpkw9eH6gjI-6" value="" style="verticalLabelPosition=bottom;shadow=0;dashed=0;align=center;html=1;verticalAlign=top;strokeWidth=1;shape=mxgraph.mockup.containers.userFemale;strokeColor=#666666;strokeColor2=#008cff;" vertex="1" parent="0tqGgI4BvTpkw9eH6gjI-1">
          <mxGeometry x="490" y="120" width="50" height="50" as="geometry" />
        </mxCell>
        <mxCell id="0tqGgI4BvTpkw9eH6gjI-7" value="" style="verticalLabelPosition=bottom;shadow=0;dashed=0;align=center;html=1;verticalAlign=top;strokeWidth=1;shape=mxgraph.mockup.markup.line;strokeColor=#999999;" vertex="1" parent="0tqGgI4BvTpkw9eH6gjI-1">
          <mxGeometry x="30" y="180" width="530" height="20" as="geometry" />
        </mxCell>
        <mxCell id="0tqGgI4BvTpkw9eH6gjI-30" value="Posts" style="text;html=1;strokeColor=none;fillColor=none;align=center;verticalAlign=middle;whiteSpace=wrap;rounded=0;" vertex="1" parent="0tqGgI4BvTpkw9eH6gjI-1">
          <mxGeometry x="30" y="410" width="190" height="30" as="geometry" />
        </mxCell>
        <mxCell id="0tqGgI4BvTpkw9eH6gjI-31" value="Edit" style="strokeWidth=1;shadow=0;dashed=0;align=center;html=1;shape=mxgraph.mockup.buttons.button;mainText=;buttonStyle=round;fontSize=17;fontStyle=1;whiteSpace=wrap;" vertex="1" parent="0tqGgI4BvTpkw9eH6gjI-1">
          <mxGeometry x="480" y="210" width="70" height="30" as="geometry" />
        </mxCell>
        <mxCell id="0tqGgI4BvTpkw9eH6gjI-32" value="69 Post" style="text;html=1;strokeColor=none;fillColor=none;align=center;verticalAlign=middle;whiteSpace=wrap;rounded=0;" vertex="1" parent="0tqGgI4BvTpkw9eH6gjI-1">
          <mxGeometry x="200" y="260" width="60" height="30" as="geometry" />
        </mxCell>
        <mxCell id="0tqGgI4BvTpkw9eH6gjI-44" value="69 Followers" style="text;html=1;strokeColor=none;fillColor=none;align=center;verticalAlign=middle;whiteSpace=wrap;rounded=0;" vertex="1" parent="0tqGgI4BvTpkw9eH6gjI-1">
          <mxGeometry x="280" y="260" width="80" height="30" as="geometry" />
        </mxCell>
        <mxCell id="0tqGgI4BvTpkw9eH6gjI-57" value="69 Following" style="text;html=1;strokeColor=none;fillColor=none;align=center;verticalAlign=middle;whiteSpace=wrap;rounded=0;" vertex="1" parent="0tqGgI4BvTpkw9eH6gjI-1">
          <mxGeometry x="380" y="260" width="80" height="30" as="geometry" />
        </mxCell>
        <mxCell id="0tqGgI4BvTpkw9eH6gjI-58" value="&lt;b&gt;Bio&lt;/b&gt;" style="text;html=1;strokeColor=none;fillColor=none;align=center;verticalAlign=middle;whiteSpace=wrap;rounded=0;" vertex="1" parent="0tqGgI4BvTpkw9eH6gjI-1">
          <mxGeometry x="200" y="300" width="60" height="30" as="geometry" />
        </mxCell>
        <mxCell id="0tqGgI4BvTpkw9eH6gjI-59" value="I am gay I love bibhav i love my baby😚😚😚" style="text;html=1;strokeColor=none;fillColor=none;align=center;verticalAlign=middle;whiteSpace=wrap;rounded=0;" vertex="1" parent="0tqGgI4BvTpkw9eH6gjI-1">
          <mxGeometry x="200" y="340" width="150" height="30" as="geometry" />
        </mxCell>
        <mxCell id="0tqGgI4BvTpkw9eH6gjI-60" value="" style="verticalLabelPosition=bottom;shadow=0;dashed=0;align=center;html=1;verticalAlign=top;strokeWidth=1;shape=mxgraph.mockup.markup.line;strokeColor=#999999;" vertex="1" parent="0tqGgI4BvTpkw9eH6gjI-1">
          <mxGeometry x="30" y="390" width="530" height="20" as="geometry" />
        </mxCell>
        <mxCell id="jFu5xHji2KjjjdoAMv2s-17" value="" style="rounded=0;whiteSpace=wrap;html=1;" vertex="1" parent="0tqGgI4BvTpkw9eH6gjI-1">
          <mxGeometry x="20" y="440" width="530" height="80" as="geometry" />
        </mxCell>
        <mxCell id="jFu5xHji2KjjjdoAMv2s-18" value="Username" style="text;html=1;strokeColor=none;fillColor=none;align=center;verticalAlign=middle;whiteSpace=wrap;rounded=0;" vertex="1" parent="0tqGgI4BvTpkw9eH6gjI-1">
          <mxGeometry x="20" y="440" width="60" height="30" as="geometry" />
        </mxCell>
        <mxCell id="jFu5xHji2KjjjdoAMv2s-19" value="&lt;h1&gt;Title&lt;/h1&gt;&lt;p&gt;Display Text&lt;/p&gt;" style="text;html=1;strokeColor=none;fillColor=none;spacing=5;spacingTop=-20;whiteSpace=wrap;overflow=hidden;rounded=0;" vertex="1" parent="0tqGgI4BvTpkw9eH6gjI-1">
          <mxGeometry x="80" y="447.5" width="180" height="65" as="geometry" />
        </mxCell>
        <mxCell id="jFu5xHji2KjjjdoAMv2s-20" value="" style="sketch=0;html=1;aspect=fixed;strokeColor=none;shadow=0;fillColor=#3B8DF1;verticalAlign=top;labelPosition=center;verticalLabelPosition=bottom;shape=mxgraph.gcp2.thumbs_up" vertex="1" parent="0tqGgI4BvTpkw9eH6gjI-1">
          <mxGeometry x="30" y="470" width="40" height="40" as="geometry" />
        </mxCell>
        <mxCell id="jFu5xHji2KjjjdoAMv2s-21" value="" style="sketch=0;outlineConnect=0;fontColor=#232F3E;gradientColor=none;fillColor=#ED7100;strokeColor=none;dashed=0;verticalLabelPosition=bottom;verticalAlign=top;align=center;html=1;fontSize=12;fontStyle=0;aspect=fixed;pointerEvents=1;shape=mxgraph.aws4.container_registry_image;" vertex="1" parent="0tqGgI4BvTpkw9eH6gjI-1">
          <mxGeometry x="460" y="444.5" width="68" height="68" as="geometry" />
        </mxCell>
        <mxCell id="jFu5xHji2KjjjdoAMv2s-22" value="" style="rounded=0;whiteSpace=wrap;html=1;" vertex="1" parent="0tqGgI4BvTpkw9eH6gjI-1">
          <mxGeometry x="20" y="530" width="530" height="80" as="geometry" />
        </mxCell>
        <mxCell id="jFu5xHji2KjjjdoAMv2s-23" value="Username" style="text;html=1;strokeColor=none;fillColor=none;align=center;verticalAlign=middle;whiteSpace=wrap;rounded=0;" vertex="1" parent="0tqGgI4BvTpkw9eH6gjI-1">
          <mxGeometry x="20" y="530" width="60" height="30" as="geometry" />
        </mxCell>
        <mxCell id="jFu5xHji2KjjjdoAMv2s-24" value="&lt;h1&gt;Title&lt;/h1&gt;&lt;p&gt;Display Text&lt;/p&gt;" style="text;html=1;strokeColor=none;fillColor=none;spacing=5;spacingTop=-20;whiteSpace=wrap;overflow=hidden;rounded=0;" vertex="1" parent="0tqGgI4BvTpkw9eH6gjI-1">
          <mxGeometry x="80" y="537.5" width="180" height="65" as="geometry" />
        </mxCell>
        <mxCell id="jFu5xHji2KjjjdoAMv2s-25" value="" style="sketch=0;html=1;aspect=fixed;strokeColor=none;shadow=0;fillColor=#3B8DF1;verticalAlign=top;labelPosition=center;verticalLabelPosition=bottom;shape=mxgraph.gcp2.thumbs_up" vertex="1" parent="0tqGgI4BvTpkw9eH6gjI-1">
          <mxGeometry x="30" y="560" width="40" height="40" as="geometry" />
        </mxCell>
        <mxCell id="jFu5xHji2KjjjdoAMv2s-26" value="" style="sketch=0;outlineConnect=0;fontColor=#232F3E;gradientColor=none;fillColor=#ED7100;strokeColor=none;dashed=0;verticalLabelPosition=bottom;verticalAlign=top;align=center;html=1;fontSize=12;fontStyle=0;aspect=fixed;pointerEvents=1;shape=mxgraph.aws4.container_registry_image;" vertex="1" parent="0tqGgI4BvTpkw9eH6gjI-1">
          <mxGeometry x="460" y="534.5" width="68" height="68" as="geometry" />
        </mxCell>
        <mxCell id="jFu5xHji2KjjjdoAMv2s-27" value="" style="rounded=0;whiteSpace=wrap;html=1;" vertex="1" parent="0tqGgI4BvTpkw9eH6gjI-1">
          <mxGeometry x="20" y="620" width="530" height="80" as="geometry" />
        </mxCell>
        <mxCell id="jFu5xHji2KjjjdoAMv2s-28" value="Username" style="text;html=1;strokeColor=none;fillColor=none;align=center;verticalAlign=middle;whiteSpace=wrap;rounded=0;" vertex="1" parent="0tqGgI4BvTpkw9eH6gjI-1">
          <mxGeometry x="20" y="620" width="60" height="30" as="geometry" />
        </mxCell>
        <mxCell id="jFu5xHji2KjjjdoAMv2s-29" value="&lt;h1&gt;Title&lt;/h1&gt;&lt;p&gt;Display Text&lt;/p&gt;" style="text;html=1;strokeColor=none;fillColor=none;spacing=5;spacingTop=-20;whiteSpace=wrap;overflow=hidden;rounded=0;" vertex="1" parent="0tqGgI4BvTpkw9eH6gjI-1">
          <mxGeometry x="80" y="627.5" width="180" height="65" as="geometry" />
        </mxCell>
        <mxCell id="jFu5xHji2KjjjdoAMv2s-30" value="" style="sketch=0;html=1;aspect=fixed;strokeColor=none;shadow=0;fillColor=#3B8DF1;verticalAlign=top;labelPosition=center;verticalLabelPosition=bottom;shape=mxgraph.gcp2.thumbs_up" vertex="1" parent="0tqGgI4BvTpkw9eH6gjI-1">
          <mxGeometry x="30" y="650" width="40" height="40" as="geometry" />
        </mxCell>
        <mxCell id="jFu5xHji2KjjjdoAMv2s-31" value="" style="sketch=0;outlineConnect=0;fontColor=#232F3E;gradientColor=none;fillColor=#ED7100;strokeColor=none;dashed=0;verticalLabelPosition=bottom;verticalAlign=top;align=center;html=1;fontSize=12;fontStyle=0;aspect=fixed;pointerEvents=1;shape=mxgraph.aws4.container_registry_image;" vertex="1" parent="0tqGgI4BvTpkw9eH6gjI-1">
          <mxGeometry x="460" y="624.5" width="68" height="68" as="geometry" />
        </mxCell>
        <mxCell id="jFu5xHji2KjjjdoAMv2s-32" value="&lt;&lt; Prev 1 2 3 4 5 6 7 8 9 10 Next &gt;&gt;" style="strokeWidth=1;shadow=0;dashed=0;align=center;html=1;shape=mxgraph.mockup.navigation.pagination;linkText=;fontSize=17;fontColor=#0000ff;fontStyle=4;" vertex="1" parent="0tqGgI4BvTpkw9eH6gjI-1">
          <mxGeometry x="110" y="710" width="350" height="30" as="geometry" />
        </mxCell>
        <mxCell id="0tqGgI4BvTpkw9eH6gjI-29" value="" style="verticalLabelPosition=bottom;shadow=0;dashed=0;align=center;html=1;verticalAlign=top;strokeWidth=1;shape=mxgraph.mockup.containers.userFemale;strokeColor=#666666;strokeColor2=#008cff;" vertex="1" parent="0tqGgI4BvTpkw9eH6gjI-1">
          <mxGeometry x="50" y="230" width="130" height="130" as="geometry" />
        </mxCell>
      </root>
    </mxGraphModel>
  </diagram>
</mxfile>
